<svg width="24" height="24" viewBox="0 0 1024 1024" version="1.1" xmlns="http://www.w3.org/2000/svg">
  <path d="M170.666667 373.333333A202.666667 202.666667 0 0 1 373.333333 170.666667h21.333334a32 32 0 0 1 0 64h-21.333334A138.666667 138.666667 0 0 0 234.666667 373.333333v21.333334a32 32 0 0 1-64 0v-21.333334zM202.666667 597.333333a32 32 0 0 1 32 32v21.333334a138.666667 138.666667 0 0 0 138.666666 138.666666h21.333334a32 32 0 0 1 0 64h-21.333334A202.666667 202.666667 0 0 1 170.666667 650.666667v-21.333334a32 32 0 0 1 32-32zM597.333333 202.666667a32 32 0 0 1 32-32h21.333334A202.666667 202.666667 0 0 1 853.333333 373.333333v21.333334a32 32 0 0 1-64 0v-21.333334a138.666667 138.666667 0 0 0-138.666666-138.666666h-21.333334a32 32 0 0 1-32-32zM821.333333 597.333333a32 32 0 0 1 32 32v21.333334A202.666667 202.666667 0 0 1 650.666667 853.333333h-21.333334a32 32 0 0 1 0-64h21.333334a138.666667 138.666667 0 0 0 138.666666-138.666666v-21.333334a32 32 0 0 1 32-32zM384 426.666667a42.666667 42.666667 0 1 1 85.333333 0 42.666667 42.666667 0 0 1-85.333333 0zM554.666667 426.666667a42.666667 42.666667 0 1 1 85.333333 0 42.666667 42.666667 0 0 1-85.333333 0zM405.162667 540.8v-0.298667 0.042667a32 32 0 0 0-63.658667 6.656l31.829333-3.2-31.829333 3.2V547.626667l0.085333 0.512a79.744 79.744 0 0 0 0.981334 6.314666 161.024 161.024 0 0 0 25.856 61.269334C393.045333 650.752 437.333333 682.666667 512 682.666667c74.666667 0 119.04-31.914667 143.530667-66.986667a160.981333 160.981333 0 0 0 26.666666-66.048l0.213334-1.536 0.042666-0.512v-0.213333l0.042667-0.128-31.829333-3.242667 31.829333 3.2a32 32 0 0 0-63.658667-6.656v0.213333m0-0.213333v0.213333a84.693333 84.693333 0 0 1-2.474666 10.709334 97.024 97.024 0 0 1-13.226667 27.52c-12.8 18.261333-37.802667 39.68-91.136 39.68s-78.293333-21.418667-91.136-39.68a97.024 97.024 0 0 1-15.701333-38.229334m0 0z" fill="currentColor"/>
</svg>
