<svg width="24" height="24" viewBox="0 0 1024 1024" version="1.1" xmlns="http://www.w3.org/2000/svg">
  <path d="M375.42912 281.33376c0-18.85184-15.29856-34.12992-34.12992-34.12992s-34.12992 15.28832-34.0992 34.12992a34.11968 34.11968 0 1 0 68.22912 0z" fill="currentColor"/>
  <path d="M682.67008 281.33376m-34.12992 0a34.12992 34.12992 0 1 0 68.25984 0 34.12992 34.12992 0 1 0-68.25984 0Z" fill="currentColor"/>
  <path d="M546.12992 819.2A34.16064 34.16064 0 0 0 512 785.05984 34.14016 34.14016 0 1 0 546.12992 819.2z" fill="currentColor"/>
  <path d="M845.568 370.96448l-0.04096 0.02048c26.20416-34.39616 41.94304-77.19936 41.94304-123.78112 0-56.53504-22.9376-107.73504-59.99616-144.80384l-48.27136 48.26112A136.05888 136.05888 0 0 1 819.2 247.20384c0 75.39712-61.1328 136.52992-136.52992 136.52992s-136.54016-61.1328-136.54016-136.52992h-68.25984c0 75.39712-61.14304 136.52992-136.54016 136.52992S204.8 322.60096 204.8 247.20384a136.02816 136.02816 0 0 1 39.96672-96.53248L196.49536 102.4a204.00128 204.00128 0 0 0-59.96544 144.80384c0 46.63296 15.7696 89.46688 42.00448 123.904 66.27328 175.75936 59.26912 362.30144-7.86432 524.35968L233.728 921.6c64.2048-154.96192 75.97056-322.43712 37.0688-482.33472a203.86816 203.86816 0 0 0 70.53312 12.73856c71.2704 0 134.00064-36.4544 170.67008-91.68896 36.66944 55.23456 99.39968 91.68896 170.67008 91.68896 24.86272 0 48.55808-4.64896 70.6048-12.76928-38.97344 159.96928-27.26912 327.424 36.864 482.36544l63.06816-26.14272c-72.20224-174.35648-69.43744-360.7552-7.63904-524.4928z" fill="currentColor"/>
</svg>
